<svg width="82" height="82" fill="none" xmlns="http://www.w3.org/2000/svg">
    <path d="M70 0H12C5.373 0 0 5.373 0 12v58c0 6.627 5.373 12 12 12h58c6.627 0 12-5.373 12-12V12c0-6.627-5.373-12-12-12z" fill="#D5FF5C"/>
    <path d="M74.595 32.5c-1.785.388-3.326 1.384-4.047 3.102-.435 1.042-1.043 3.735-2.71 3.038-.797-.329-.785-1.473-.692-2.186.198-1.464.857-2.802 1.308-4.195.465-1.444.866-2.895 1.153-4.39.962-4.946.696-10.643-2.803-14.598-.59-.675-2.08-2.237-3.064-2.27-.608-.018-.008.7.16.94.342.494.63 1.03.849 1.592 2.587 6.6-3.79 11.627-7.981 15.54-2.009 1.878-3.613 3.87-5.056 6.195-.144.224-.46.975-.87.819-.485-.186-.536-1.296-.688-1.71-.287-.793-.73-1.658-1.3-2.278-1.101-1.207-2.642-2.022-4.309-1.912a4.065 4.065 0 00-.468.084c-.35.076-1.287.198-1.034.764.13.291.515.266.79.346 3.519 1.08 3.439 4.77 2.869 7.732-1.03 5.394-3.883 10.492-1.857 16.038 2.389 6.537 9.867 10.619 16.654 9.496 1.853-.304 3.988-.903 5.651-1.798 1.769-.954 3.706-2.258 5.086-3.727a12.36 12.36 0 003.241-6.866c.393-2.963-.553-5.757-1.413-8.555-1.039-3.377-2.233-8.889 2.08-10.539.211-.084.633-.148.781-.371.549-.82-2.085-.342-2.33-.291z" fill="#ED6C30"/>
    <path d="M61.74 55.674c.894.752 2.148.384 2.992-.257.452-.342.84-.781 1.093-1.292.106-.22.228-.498.228-.747 0-.333-.198-.662-.114-1.004.71-.14 1.587 1.9 1.676 2.372.709 3.726-2.803 6.799-6.192 7.394-5.719 1-9.006-4.01-8.348-8.458.41-2.769 2.266-4.672 4.157-6.571 1.566-1.574 3.018-2.925 3.524-4.972.089-.363.068-.92-.038-1.279-.088-.308-.257-.59-.266-.924-.025-.7.655.215.81.392 1.883 2.123 2.42 5.26 1.917 8.003-.325 1.772-1.591 3.038-2.034 4.735-.258.966-.233 1.908.595 2.608z" fill="#FCC21B"/>
    <path d="M7.405 32.5c1.785.388 3.325 1.384 4.047 3.102.435 1.042 1.043 3.735 2.71 3.038.797-.329.785-1.473.692-2.186-.198-1.464-.857-2.802-1.308-4.195-.465-1.444-.866-2.895-1.153-4.39-.962-4.946-.696-10.643 2.803-14.598.59-.675 2.08-2.237 3.064-2.27.608-.018.008.7-.16.94a7.785 7.785 0 00-.849 1.592c-2.587 6.6 3.79 11.627 7.981 15.54 2.009 1.878 3.613 3.87 5.056 6.195.144.224.46.975.87.819.485-.186.536-1.296.688-1.71.287-.793.73-1.658 1.3-2.278 1.101-1.207 2.642-2.022 4.309-1.912.063.004.244.033.468.084.35.076 1.287.198 1.034.764-.13.291-.515.266-.79.346-3.519 1.08-3.439 4.77-2.869 7.732 1.03 5.394 3.883 10.492 1.857 16.038-2.389 6.537-9.867 10.619-16.654 9.496-1.853-.304-3.989-.903-5.651-1.798-1.769-.954-3.706-2.258-5.086-3.727a12.36 12.36 0 01-3.241-6.866c-.393-2.963.553-5.757 1.413-8.555 1.039-3.377 2.233-8.889-2.08-10.539-.211-.084-.633-.148-.781-.371-.549-.82 2.085-.342 2.33-.291z" fill="#ED6C30"/>
    <path d="M20.26 55.674c-.894.752-2.148.384-2.992-.257a3.712 3.712 0 01-1.093-1.292c-.106-.22-.228-.498-.228-.747 0-.333.198-.662.114-1.004-.71-.14-1.587 1.9-1.676 2.372-.709 3.726 2.803 6.799 6.192 7.394 5.719 1 9.006-4.01 8.348-8.458-.41-2.769-2.266-4.672-4.157-6.571-1.566-1.574-3.018-2.925-3.524-4.972-.089-.363-.068-.92.038-1.279.088-.308.257-.59.266-.924.025-.7-.655.215-.81.392-1.883 2.123-2.42 5.26-1.917 8.003.325 1.772 1.591 3.038 2.034 4.735.258.966.233 1.908-.595 2.608z" fill="#FCC21B"/>
    <mask id="a" style="mask-type:alpha" maskUnits="userSpaceOnUse" x="14" y="9" width="53" height="64">
        <path fill-rule="evenodd" clip-rule="evenodd" d="M41.009 66.935l-9.047 5.023c-6.818 3.785-14.81-3.428-11.96-10.576.701-1.756 1.37-3.494 2.008-5.222l-4.035-2.29c-3.827-2.17-5.115-6.972-2.874-10.715L33.17 12.98c1.405-2.345 3.635-3.573 5.984-3.847 3.192-.55 6.658.596 8.557 3.836l18.224 31.087c2.207 3.764.876 8.555-2.969 10.69l-3.367 1.87c.6 1.579 1.224 3.177 1.876 4.798 2.866 7.128-5.131 14.219-11.904 10.377l-8.561-4.855z" fill="#fff"/>
    </mask>
    <g mask="url(#a)">
        <path fill="#FD4848" d="M0 0h82v82H0z"/>
        <path d="M57 48.499s-7.164 10-16 10c-8.837 0-16-10-16-10s7.163-10 16-10c8.836 0 16 10 16 10z" fill="#D5FF5C"/>
        <path d="M48.497 48.499a7.5 7.5 0 11-14.996 0 7.499 7.499 0 0114.997 0h-.001z" stroke="#FD4848" stroke-width="1.003"/>
        <path d="M45.497 48.499a4.499 4.499 0 11-8.997 0 4.5 4.5 0 018.998 0h-.001z" stroke="#FD4848" stroke-width="1.003"/>
        <path d="M51.498 48.499c0 5.798-4.7 10.498-10.498 10.498-5.799 0-10.5-4.7-10.5-10.498C30.5 42.701 35.201 38 41 38c5.798 0 10.498 4.7 10.498 10.499v0z" stroke="#FD4848" stroke-width="1.003"/>
        <path d="M54.497 48.499c0 7.455-6.043 13.498-13.498 13.498-7.455 0-13.498-6.043-13.498-13.498C27.501 41.043 33.544 35 40.999 35c7.455 0 13.499 6.044 13.499 13.499h-.001z" stroke="#FD4848" stroke-width="1.003"/>
        <path d="M42.498 48.499a1.498 1.498 0 11-2.995.077 1.498 1.498 0 012.995-.077z" fill="#FD4848" stroke="#FD4848" stroke-width="1.003"/>
        <path d="M25.72 48.62l-.093-.121.094-.122a33.184 33.184 0 014.293-4.499C32.88 41.405 36.764 39 41.001 39c4.236 0 8.12 2.405 10.986 4.878a33.198 33.198 0 014.293 4.5l.094.12c-.325.42-.662.833-1.01 1.235a33.194 33.194 0 01-3.377 3.386c-2.865 2.474-6.75 4.878-10.986 4.878-4.237 0-8.121-2.404-10.986-4.878a33.198 33.198 0 01-4.294-4.499h-.001z" stroke="#D5FF5C" stroke-width="1.003"/>
    </g>
</svg>
